{"title":"Mr. Peabody Sherman *2014* [720p.BRRip.AC3.XviD.CiNEMAET-SAVED][","uid":10738447,"size":2810159600,"categoryP":"video","categoryS":"hd___movies","magnet":"?xt=urn:btih:092a10a9b29271bcb784e796c51434b3242b19ef&amp;dn=Mr.+Peabody+Sherman+%2A2014%2A+%5B720p.BRRip.AC3.XviD.CiNEMAET-SAVED%5D%5B&amp;tr=udp%3A%2F%2Ftracker.openbittorrent.com%3A80&amp;tr=udp%3A%2F%2Fopen.demonii.com%3A1337&amp;tr=udp%3A%2F%2Ftracker.coppersurfer.tk%3A6969&amp;tr=udp%3A%2F%2Fexodus.desync.com%3A6969","seeders":6,"leechers":1,"uploader":"krzysiekvip2","files":7,"time":1407719696,"description":"Dane Techniczne:\n\nFormat : AVI\nFormat/Info : Audio Video Interleave\nFormat profile : OpenDML\nFile size : 2.59 GiB\nDuration : 1h 32mn\nOverall bit rate : 4 004 Kbps\nWriting application : VirtualDubMod 1.5.10.2 (build 2540/release)\nWriting library : VirtualDubMod build 2540/release\n\nVideo\nID : 0\nFormat : MPEG-4 Visual\nFormat profile : Advanced Simple@L5\nFormat settings, BVOP : 2\nFormat settings, QPel : No\nFormat settings, GMC : No warppoints\nFormat settings, Matrix : Default (MPEG)\nCodec ID : XVID\nCodec ID/Hint : XviD\nDuration : 1h 32mn\nBit rate : 3 545 Kbps\nWidth : 1 280 pixels\nHeight : 694 pixels\nDisplay aspect ratio : 1.85:1\nFrame rate : 23.976 fps\nColor space : YUV\nChroma subsampling : 4:2:0\nBit depth : 8 bits\nScan type : Progressive\nCompression mode : Lossy\nBits/(Pixel*Frame) : 0.166\nStream size : 2.29 GiB (89%)\nWriting library : XviD 1.2.1 (UTC 2008-12-04)\n\nAudio\nID : 1\nFormat : AC-3\nFormat/Info : Audio Coding 3\nMode extension : CM (complete main)\nFormat settings, Endianness : Big\nCodec ID : 2000\nDuration : 1h 32mn\nBit rate mode : Constant\nBit rate : 448 Kbps\nChannel(s) : 6 channels\nChannel positions : Front: L C R, Side: L R, LFE\nSampling rate : 48.0 KHz\nBit depth : 16 bits\nCompression mode : Lossy\nStream size : 296 MiB (11%)\nAlignment : Split accross interleaves\nInterleave, duration : 42 ms (1.00 video frame)\nInterleave, preload duration : 500 ms \nLanguage: Polish","torrent":{"xt":"urn:btih:092a10a9b29271bcb784e796c51434b3242b19ef","amp;dn":"Mr.+Peabody+Sherman+%2A2014%2A+%5B720p.BRRip.AC3.XviD.CiNEMAET-SAVED%5D%5B","amp;tr":["udp%3A%2F%2Ftracker.openbittorrent.com%3A80","udp%3A%2F%2Fopen.demonii.com%3A1337","udp%3A%2F%2Ftracker.coppersurfer.tk%3A6969","udp%3A%2F%2Fexodus.desync.com%3A6969"],"infoHash":"092a10a9b29271bcb784e796c51434b3242b19ef","infoHashBuffer":{"type":"Buffer","data":[9,42,16,169,178,146,113,188,183,132,231,150,197,20,52,179,36,43,25,239]},"announce":[],"urlList":[]}}